<svg viewBox="0 0 12 12" width="168px" height="168px" xmlns="http://www.w3.org/2000/svg"><path fill-rule="evenodd" d="M 1,0 11,0 11,1 12,1 12,4 11,4 11,5 10,5 10,6 11,6 11,8 12,8 12,11 9,11 9,10 3,10 3,11 0,11 0,8 1,8 1,6 2,6 2,5 1,5 1,4 0,4 0,1 1,1z" fill="#13C9BA"/><path fill-rule="evenodd" d="M 2,1 3,1 3,2 4,2 4,5 3,5 3,4 2,4 2,3 1,3 1,2 2,2z" fill="#ffffff"/><path fill-rule="evenodd" d="M 4,1 5,1 5,2 4,2z" fill="#ffffff"/><path fill-rule="evenodd" d="M 7,1 8,1 8,2 7,2z" fill="#ffffff"/><path fill-rule="evenodd" d="M 9,1 10,1 10,2 11,2 11,3 10,3 10,4 9,4 9,5 8,5 8,2 9,2z" fill="#ffffff"/><path fill-rule="evenodd" d="M 5,3 7,3 7,4 5,4z" fill="#ffffff"/><path fill-rule="evenodd" d="M 4,5 5,5 5,6 7,6 7,5 8,5 8,7 4,7z" fill="#ffffff"/><path fill-rule="evenodd" d="M 2,7 4,7 4,8 2,8z" fill="#ffffff"/><path fill-rule="evenodd" d="M 8,7 10,7 10,8 8,8z" fill="#ffffff"/><path fill-rule="evenodd" d="M 4,8 5,8 5,9 4,9z" fill="#ffffff"/><path fill-rule="evenodd" d="M 7,8 8,8 8,9 7,9z" fill="#ffffff"/><path fill-rule="evenodd" d="M 1,9 2,9 2,10 1,10z" fill="#ffffff"/><path fill-rule="evenodd" d="M 10,9 11,9 11,10 10,10z" fill="#ffffff"/></svg>